<mxfile host="app.diagrams.net" agent="Mozilla/5.0 (Windows NT 10.0; Win64; x64) AppleWebKit/537.36 (KHTML, like Gecko) Chrome/140.0.0.0 Safari/537.36 Edg/140.0.0.0" version="28.2.5">
  <diagram name="Page-1" id="CNQS5Xrqt7zqd8Gi99tT">
    <mxGraphModel dx="1840" dy="1060" grid="1" gridSize="10" guides="1" tooltips="1" connect="1" arrows="1" fold="1" page="1" pageScale="1" pageWidth="850" pageHeight="1100" math="0" shadow="0">
      <root>
        <mxCell id="0" />
        <mxCell id="1" parent="0" />
        <mxCell id="JxfOv3fXcAA6r9yUdwZh-14" style="edgeStyle=orthogonalEdgeStyle;rounded=0;orthogonalLoop=1;jettySize=auto;html=1;exitX=0.5;exitY=1;exitDx=0;exitDy=0;entryX=0.5;entryY=0;entryDx=0;entryDy=0;" edge="1" parent="1" source="JxfOv3fXcAA6r9yUdwZh-1" target="JxfOv3fXcAA6r9yUdwZh-2">
          <mxGeometry relative="1" as="geometry" />
        </mxCell>
        <mxCell id="JxfOv3fXcAA6r9yUdwZh-1" value="Load Player Data&lt;div&gt;(Health, Weapons)&lt;/div&gt;" style="rounded=0;whiteSpace=wrap;html=1;" vertex="1" parent="1">
          <mxGeometry x="305" y="80" width="120" height="60" as="geometry" />
        </mxCell>
        <mxCell id="JxfOv3fXcAA6r9yUdwZh-15" style="edgeStyle=orthogonalEdgeStyle;rounded=0;orthogonalLoop=1;jettySize=auto;html=1;exitX=0.5;exitY=1;exitDx=0;exitDy=0;entryX=0.5;entryY=0;entryDx=0;entryDy=0;" edge="1" parent="1" source="JxfOv3fXcAA6r9yUdwZh-2" target="JxfOv3fXcAA6r9yUdwZh-3">
          <mxGeometry relative="1" as="geometry" />
        </mxCell>
        <mxCell id="JxfOv3fXcAA6r9yUdwZh-2" value="Load Battle Data&lt;div&gt;(Enemy Name, Vulnerability)&lt;/div&gt;" style="rounded=0;whiteSpace=wrap;html=1;" vertex="1" parent="1">
          <mxGeometry x="305" y="170" width="120" height="60" as="geometry" />
        </mxCell>
        <mxCell id="JxfOv3fXcAA6r9yUdwZh-3" value="Battle" style="rounded=0;whiteSpace=wrap;html=1;" vertex="1" parent="1">
          <mxGeometry x="305" y="260" width="120" height="60" as="geometry" />
        </mxCell>
        <mxCell id="JxfOv3fXcAA6r9yUdwZh-17" style="edgeStyle=orthogonalEdgeStyle;rounded=0;orthogonalLoop=1;jettySize=auto;html=1;exitX=1;exitY=0.5;exitDx=0;exitDy=0;entryX=0;entryY=0.5;entryDx=0;entryDy=0;" edge="1" parent="1" source="JxfOv3fXcAA6r9yUdwZh-4" target="JxfOv3fXcAA6r9yUdwZh-9">
          <mxGeometry relative="1" as="geometry" />
        </mxCell>
        <mxCell id="JxfOv3fXcAA6r9yUdwZh-4" value="Have Health&lt;div&gt;&amp;gt; 0&lt;/div&gt;" style="rhombus;whiteSpace=wrap;html=1;" vertex="1" parent="1">
          <mxGeometry x="325" y="360" width="80" height="80" as="geometry" />
        </mxCell>
        <mxCell id="JxfOv3fXcAA6r9yUdwZh-18" style="edgeStyle=orthogonalEdgeStyle;rounded=0;orthogonalLoop=1;jettySize=auto;html=1;exitX=0.5;exitY=1;exitDx=0;exitDy=0;entryX=0.5;entryY=0;entryDx=0;entryDy=0;" edge="1" parent="1" source="JxfOv3fXcAA6r9yUdwZh-5" target="JxfOv3fXcAA6r9yUdwZh-6">
          <mxGeometry relative="1" as="geometry" />
        </mxCell>
        <mxCell id="JxfOv3fXcAA6r9yUdwZh-5" value="You Loose" style="rounded=0;whiteSpace=wrap;html=1;" vertex="1" parent="1">
          <mxGeometry x="305" y="470" width="120" height="60" as="geometry" />
        </mxCell>
        <mxCell id="JxfOv3fXcAA6r9yUdwZh-6" value="STOP" style="ellipse;whiteSpace=wrap;html=1;aspect=fixed;" vertex="1" parent="1">
          <mxGeometry x="425" y="580" width="80" height="80" as="geometry" />
        </mxCell>
        <mxCell id="JxfOv3fXcAA6r9yUdwZh-7" value="" style="endArrow=classic;html=1;rounded=0;exitX=0.5;exitY=1;exitDx=0;exitDy=0;entryX=0.5;entryY=0;entryDx=0;entryDy=0;" edge="1" parent="1" source="JxfOv3fXcAA6r9yUdwZh-4" target="JxfOv3fXcAA6r9yUdwZh-5">
          <mxGeometry width="50" height="50" relative="1" as="geometry">
            <mxPoint x="350" y="410" as="sourcePoint" />
            <mxPoint x="400" y="360" as="targetPoint" />
          </mxGeometry>
        </mxCell>
        <mxCell id="JxfOv3fXcAA6r9yUdwZh-8" value="No" style="text;html=1;align=center;verticalAlign=middle;whiteSpace=wrap;rounded=0;" vertex="1" parent="1">
          <mxGeometry x="360" y="440" width="60" height="30" as="geometry" />
        </mxCell>
        <mxCell id="JxfOv3fXcAA6r9yUdwZh-16" style="edgeStyle=orthogonalEdgeStyle;rounded=0;orthogonalLoop=1;jettySize=auto;html=1;exitX=0.5;exitY=1;exitDx=0;exitDy=0;entryX=0.5;entryY=0;entryDx=0;entryDy=0;" edge="1" parent="1" source="JxfOv3fXcAA6r9yUdwZh-9" target="JxfOv3fXcAA6r9yUdwZh-10">
          <mxGeometry relative="1" as="geometry" />
        </mxCell>
        <mxCell id="JxfOv3fXcAA6r9yUdwZh-9" value="Defeated&lt;div&gt;All?&lt;/div&gt;" style="rhombus;whiteSpace=wrap;html=1;" vertex="1" parent="1">
          <mxGeometry x="510" y="360" width="80" height="80" as="geometry" />
        </mxCell>
        <mxCell id="JxfOv3fXcAA6r9yUdwZh-19" style="edgeStyle=orthogonalEdgeStyle;rounded=0;orthogonalLoop=1;jettySize=auto;html=1;exitX=0.5;exitY=1;exitDx=0;exitDy=0;entryX=0.5;entryY=0;entryDx=0;entryDy=0;" edge="1" parent="1" source="JxfOv3fXcAA6r9yUdwZh-10" target="JxfOv3fXcAA6r9yUdwZh-6">
          <mxGeometry relative="1" as="geometry" />
        </mxCell>
        <mxCell id="JxfOv3fXcAA6r9yUdwZh-10" value="You Win" style="rounded=0;whiteSpace=wrap;html=1;" vertex="1" parent="1">
          <mxGeometry x="490" y="470" width="120" height="60" as="geometry" />
        </mxCell>
        <mxCell id="JxfOv3fXcAA6r9yUdwZh-11" value="" style="endArrow=classic;html=1;rounded=0;exitX=0.5;exitY=0;exitDx=0;exitDy=0;entryX=1;entryY=0.5;entryDx=0;entryDy=0;" edge="1" parent="1" source="JxfOv3fXcAA6r9yUdwZh-9" target="JxfOv3fXcAA6r9yUdwZh-3">
          <mxGeometry width="50" height="50" relative="1" as="geometry">
            <mxPoint x="350" y="410" as="sourcePoint" />
            <mxPoint x="400" y="360" as="targetPoint" />
            <Array as="points">
              <mxPoint x="550" y="290" />
            </Array>
          </mxGeometry>
        </mxCell>
        <mxCell id="JxfOv3fXcAA6r9yUdwZh-12" value="" style="endArrow=classic;html=1;rounded=0;exitX=0.5;exitY=1;exitDx=0;exitDy=0;entryX=0.5;entryY=0;entryDx=0;entryDy=0;" edge="1" parent="1" source="JxfOv3fXcAA6r9yUdwZh-3" target="JxfOv3fXcAA6r9yUdwZh-4">
          <mxGeometry width="50" height="50" relative="1" as="geometry">
            <mxPoint x="350" y="410" as="sourcePoint" />
            <mxPoint x="400" y="360" as="targetPoint" />
          </mxGeometry>
        </mxCell>
        <mxCell id="JxfOv3fXcAA6r9yUdwZh-20" value="Yes" style="text;html=1;align=center;verticalAlign=middle;whiteSpace=wrap;rounded=0;" vertex="1" parent="1">
          <mxGeometry x="399" y="374" width="60" height="30" as="geometry" />
        </mxCell>
        <mxCell id="JxfOv3fXcAA6r9yUdwZh-21" value="Yes" style="text;html=1;align=center;verticalAlign=middle;whiteSpace=wrap;rounded=0;" vertex="1" parent="1">
          <mxGeometry x="540" y="430" width="60" height="30" as="geometry" />
        </mxCell>
        <mxCell id="JxfOv3fXcAA6r9yUdwZh-22" value="No" style="text;html=1;align=center;verticalAlign=middle;whiteSpace=wrap;rounded=0;" vertex="1" parent="1">
          <mxGeometry x="540" y="330" width="60" height="30" as="geometry" />
        </mxCell>
        <mxCell id="JxfOv3fXcAA6r9yUdwZh-23" value="Enemy:&lt;div&gt;(&lt;span style=&quot;background-color: transparent; color: light-dark(rgb(0, 0, 0), rgb(255, 255, 255));&quot;&gt;ID, Name, Vulnerability)&lt;/span&gt;&lt;/div&gt;&lt;div&gt;&lt;span style=&quot;background-color: transparent; color: light-dark(rgb(0, 0, 0), rgb(255, 255, 255));&quot;&gt;1, MrJeremy, [Chocolate, Syrup]&lt;/span&gt;&lt;/div&gt;&lt;div&gt;&lt;span style=&quot;background-color: transparent; color: light-dark(rgb(0, 0, 0), rgb(255, 255, 255));&quot;&gt;2, Isaiah, Butter&lt;/span&gt;&lt;/div&gt;&lt;div&gt;&lt;span style=&quot;background-color: transparent; color: light-dark(rgb(0, 0, 0), rgb(255, 255, 255));&quot;&gt;3, Julia, [Gluten, Peanut]&lt;/span&gt;&lt;/div&gt;" style="text;html=1;align=center;verticalAlign=middle;whiteSpace=wrap;rounded=0;" vertex="1" parent="1">
          <mxGeometry x="615" y="130" width="180" height="120" as="geometry" />
        </mxCell>
        <mxCell id="JxfOv3fXcAA6r9yUdwZh-25" value="Weapons:&lt;div&gt;(&lt;span style=&quot;background-color: transparent; color: light-dark(rgb(0, 0, 0), rgb(255, 255, 255));&quot;&gt;ID, Name, Power)&lt;/span&gt;&lt;/div&gt;&lt;div&gt;&lt;span style=&quot;background-color: transparent; color: light-dark(rgb(0, 0, 0), rgb(255, 255, 255));&quot;&gt;1, CC Cookie, [Butter, Chocolate, Gluten]&lt;/span&gt;&lt;/div&gt;&lt;div&gt;&lt;span style=&quot;background-color: transparent; color: light-dark(rgb(0, 0, 0), rgb(255, 255, 255));&quot;&gt;2, Snicker Bar, [Peanuts, Chocolate]&lt;/span&gt;&lt;/div&gt;&lt;div&gt;&lt;span style=&quot;background-color: transparent; color: light-dark(rgb(0, 0, 0), rgb(255, 255, 255));&quot;&gt;3, Pancakes, [Gluten, Butter, Syrup]&lt;/span&gt;&lt;/div&gt;&lt;div&gt;&lt;span style=&quot;background-color: transparent; color: light-dark(rgb(0, 0, 0), rgb(255, 255, 255));&quot;&gt;4, Peanut Buster Parfait, [Chocolate, Syrup, Peanuts]&lt;/span&gt;&lt;/div&gt;" style="text;html=1;align=center;verticalAlign=middle;whiteSpace=wrap;rounded=0;" vertex="1" parent="1">
          <mxGeometry x="510" y="20" width="320" height="120" as="geometry" />
        </mxCell>
        <mxCell id="JxfOv3fXcAA6r9yUdwZh-43" style="edgeStyle=orthogonalEdgeStyle;rounded=0;orthogonalLoop=1;jettySize=auto;html=1;exitX=0.5;exitY=1;exitDx=0;exitDy=0;entryX=0.5;entryY=0;entryDx=0;entryDy=0;" edge="1" parent="1" source="JxfOv3fXcAA6r9yUdwZh-27" target="JxfOv3fXcAA6r9yUdwZh-28">
          <mxGeometry relative="1" as="geometry" />
        </mxCell>
        <mxCell id="JxfOv3fXcAA6r9yUdwZh-27" value="System Randomly Chooses a Enemy" style="rounded=0;whiteSpace=wrap;html=1;" vertex="1" parent="1">
          <mxGeometry x="920" y="120" width="120" height="60" as="geometry" />
        </mxCell>
        <mxCell id="JxfOv3fXcAA6r9yUdwZh-44" style="edgeStyle=orthogonalEdgeStyle;rounded=0;orthogonalLoop=1;jettySize=auto;html=1;exitX=0.5;exitY=1;exitDx=0;exitDy=0;entryX=0.5;entryY=0;entryDx=0;entryDy=0;" edge="1" parent="1" source="JxfOv3fXcAA6r9yUdwZh-28" target="JxfOv3fXcAA6r9yUdwZh-29">
          <mxGeometry relative="1" as="geometry" />
        </mxCell>
        <mxCell id="JxfOv3fXcAA6r9yUdwZh-28" value="You Chose a Weapon" style="rounded=0;whiteSpace=wrap;html=1;" vertex="1" parent="1">
          <mxGeometry x="920" y="210" width="120" height="60" as="geometry" />
        </mxCell>
        <mxCell id="JxfOv3fXcAA6r9yUdwZh-33" style="edgeStyle=orthogonalEdgeStyle;rounded=0;orthogonalLoop=1;jettySize=auto;html=1;exitX=0.5;exitY=1;exitDx=0;exitDy=0;entryX=0.5;entryY=0;entryDx=0;entryDy=0;" edge="1" parent="1" source="JxfOv3fXcAA6r9yUdwZh-29" target="JxfOv3fXcAA6r9yUdwZh-30">
          <mxGeometry relative="1" as="geometry" />
        </mxCell>
        <mxCell id="JxfOv3fXcAA6r9yUdwZh-29" value="Count # of Weapon Powers that are in the Enemy Vulnerabilities" style="rounded=0;whiteSpace=wrap;html=1;" vertex="1" parent="1">
          <mxGeometry x="920" y="300" width="120" height="60" as="geometry" />
        </mxCell>
        <mxCell id="JxfOv3fXcAA6r9yUdwZh-34" style="edgeStyle=orthogonalEdgeStyle;rounded=0;orthogonalLoop=1;jettySize=auto;html=1;exitX=0.5;exitY=1;exitDx=0;exitDy=0;entryX=0.5;entryY=0;entryDx=0;entryDy=0;" edge="1" parent="1" source="JxfOv3fXcAA6r9yUdwZh-30" target="JxfOv3fXcAA6r9yUdwZh-31">
          <mxGeometry relative="1" as="geometry" />
        </mxCell>
        <mxCell id="JxfOv3fXcAA6r9yUdwZh-42" style="edgeStyle=orthogonalEdgeStyle;rounded=0;orthogonalLoop=1;jettySize=auto;html=1;exitX=1;exitY=0.5;exitDx=0;exitDy=0;entryX=0;entryY=0.5;entryDx=0;entryDy=0;" edge="1" parent="1" source="JxfOv3fXcAA6r9yUdwZh-30" target="JxfOv3fXcAA6r9yUdwZh-32">
          <mxGeometry relative="1" as="geometry" />
        </mxCell>
        <mxCell id="JxfOv3fXcAA6r9yUdwZh-30" value="If Count &amp;gt; 0" style="rhombus;whiteSpace=wrap;html=1;" vertex="1" parent="1">
          <mxGeometry x="940" y="404" width="80" height="80" as="geometry" />
        </mxCell>
        <mxCell id="JxfOv3fXcAA6r9yUdwZh-36" style="edgeStyle=orthogonalEdgeStyle;rounded=0;orthogonalLoop=1;jettySize=auto;html=1;exitX=0.5;exitY=1;exitDx=0;exitDy=0;" edge="1" parent="1" source="JxfOv3fXcAA6r9yUdwZh-31" target="JxfOv3fXcAA6r9yUdwZh-35">
          <mxGeometry relative="1" as="geometry" />
        </mxCell>
        <mxCell id="JxfOv3fXcAA6r9yUdwZh-31" value="Award Points" style="rounded=0;whiteSpace=wrap;html=1;" vertex="1" parent="1">
          <mxGeometry x="920" y="510" width="120" height="60" as="geometry" />
        </mxCell>
        <mxCell id="JxfOv3fXcAA6r9yUdwZh-47" style="edgeStyle=orthogonalEdgeStyle;rounded=0;orthogonalLoop=1;jettySize=auto;html=1;exitX=0.5;exitY=1;exitDx=0;exitDy=0;entryX=0.5;entryY=0;entryDx=0;entryDy=0;" edge="1" parent="1" source="JxfOv3fXcAA6r9yUdwZh-32" target="JxfOv3fXcAA6r9yUdwZh-45">
          <mxGeometry relative="1" as="geometry">
            <mxPoint x="1130" y="680" as="targetPoint" />
          </mxGeometry>
        </mxCell>
        <mxCell id="JxfOv3fXcAA6r9yUdwZh-32" value="Remove Points" style="rounded=0;whiteSpace=wrap;html=1;" vertex="1" parent="1">
          <mxGeometry x="1070" y="414" width="120" height="60" as="geometry" />
        </mxCell>
        <mxCell id="JxfOv3fXcAA6r9yUdwZh-46" style="edgeStyle=orthogonalEdgeStyle;rounded=0;orthogonalLoop=1;jettySize=auto;html=1;exitX=0.5;exitY=1;exitDx=0;exitDy=0;" edge="1" parent="1" source="JxfOv3fXcAA6r9yUdwZh-35" target="JxfOv3fXcAA6r9yUdwZh-45">
          <mxGeometry relative="1" as="geometry" />
        </mxCell>
        <mxCell id="JxfOv3fXcAA6r9yUdwZh-35" value="Remove Enemy" style="rounded=0;whiteSpace=wrap;html=1;" vertex="1" parent="1">
          <mxGeometry x="920" y="600" width="120" height="60" as="geometry" />
        </mxCell>
        <mxCell id="JxfOv3fXcAA6r9yUdwZh-38" value="Yes" style="text;html=1;align=center;verticalAlign=middle;whiteSpace=wrap;rounded=0;" vertex="1" parent="1">
          <mxGeometry x="970" y="474" width="60" height="30" as="geometry" />
        </mxCell>
        <mxCell id="JxfOv3fXcAA6r9yUdwZh-39" value="No" style="text;html=1;align=center;verticalAlign=middle;whiteSpace=wrap;rounded=0;" vertex="1" parent="1">
          <mxGeometry x="1010" y="414" width="60" height="16" as="geometry" />
        </mxCell>
        <mxCell id="JxfOv3fXcAA6r9yUdwZh-45" value="END" style="ellipse;whiteSpace=wrap;html=1;aspect=fixed;" vertex="1" parent="1">
          <mxGeometry x="1090" y="710" width="80" height="80" as="geometry" />
        </mxCell>
        <mxCell id="JxfOv3fXcAA6r9yUdwZh-49" style="edgeStyle=orthogonalEdgeStyle;rounded=0;orthogonalLoop=1;jettySize=auto;html=1;exitX=0.5;exitY=1;exitDx=0;exitDy=0;entryX=0.5;entryY=0;entryDx=0;entryDy=0;" edge="1" parent="1" source="JxfOv3fXcAA6r9yUdwZh-48" target="JxfOv3fXcAA6r9yUdwZh-27">
          <mxGeometry relative="1" as="geometry" />
        </mxCell>
        <mxCell id="JxfOv3fXcAA6r9yUdwZh-48" value="BATTLE&lt;div&gt;START&lt;/div&gt;" style="ellipse;whiteSpace=wrap;html=1;aspect=fixed;" vertex="1" parent="1">
          <mxGeometry x="940" y="20" width="80" height="80" as="geometry" />
        </mxCell>
      </root>
    </mxGraphModel>
  </diagram>
</mxfile>
